<svg xmlns="http://www.w3.org/2000/svg" version="1.1" xmlns:xlink="http://www.w3.org/1999/xlink" xmlns:svgjs="http://svgjs.com/svgjs" id="BgenPttrnSvgRootPreview" width="100%" height="100%"><defs><pattern x="0" y="0" width="1" height="1" patternUnits="userSpaceOnUse" id="BgenPttrnLayer1"><g id="PatternRootContent1"><g id="BgenPttrnLayer1background"><rect width="1" height="1" id="BgenPttrnBackground1" class="color_1 fill_color_1" fill="#f3f5ed"></rect></g></g></pattern><pattern x="0" y="0" width="32" height="56" patternUnits="userSpaceOnUse" id="BgenPttrnLayer2" patternTransform="matrix(-0.8485281374238569,0.848528137423857,-0.848528137423857,-0.8485281374238569,0,0)"><g id="PatternRootContent2"><g id="BgenPttrnLayer2Element1"><use xlink:href="#BgenPttrnElement1" x="19" y="-29" transform="translate(34, -14) scale(1.2) translate(-34, 14) rotate(0, 32, -14)"></use><use xlink:href="#BgenPttrnElement1" x="-13" y="-29" transform="translate(2, -14) scale(1.2) translate(-2, 14) rotate(0, 0, -14)"></use><use xlink:href="#BgenPttrnElement1" x="3" y="-1" transform="translate(18, 14) scale(1.2) translate(-18, -14) rotate(0, 16, 14)"></use><use xlink:href="#BgenPttrnElement1" x="-29" y="-1" transform="translate(-14, 14) scale(1.2) translate(14, -14) rotate(0, -16, 14)"></use><use xlink:href="#BgenPttrnElement1" x="35" y="-1" transform="translate(50, 14) scale(1.2) translate(-50, -14) rotate(0, 48, 14)"></use><use xlink:href="#BgenPttrnElement1" x="19" y="27" transform="translate(34, 42) scale(1.2) translate(-34, -42) rotate(0, 32, 42)"></use><use xlink:href="#BgenPttrnElement1" x="-13" y="27" transform="translate(2, 42) scale(1.2) translate(-2, -42) rotate(0, 0, 42)"></use><use xlink:href="#BgenPttrnElement1" x="3" y="55" transform="translate(18, 70) scale(1.2) translate(-18, -70) rotate(0, 16, 70)"></use><use xlink:href="#BgenPttrnElement1" x="3" y="55" transform="translate(18, 70) scale(1.2) translate(-18, -70) rotate(0, 16, 70)"></use></g></g></pattern><symbol id="BgenPttrnElement1"><polygon points="13,0 26,7.5 26,22.5 13,30 0,22.5 0,7.5 " class="color_2 fill_color_2" fill="#ffffff"></polygon></symbol></defs><rect width="100%" height="100%" id="BgenPttrnRctLayer1" fill="url(#BgenPttrnLayer1)"></rect><rect width="100%" height="100%" id="BgenPttrnRctLayer2" fill="url(#BgenPttrnLayer2)"></rect></svg>